<svg width="800" height="2600" viewBox="0 0 800 2600" xmlns="http://www.w3.org/2000/svg" font-family="system-ui, -apple-system, sans-serif">

  <!-- ======================== HERO ======================== -->
  <rect width="800" height="300" fill="#1A1A18"/>
  <circle cx="730" cy="-10" r="170" fill="#2C2C2A"/>
  <circle cx="710" cy="40" r="110" fill="#222220"/>
  <rect x="640" y="90" width="96" height="96" rx="8" fill="none" stroke="#EF9F27" stroke-width="1.2" transform="rotate(18 688 138)"/>
  <rect x="668" y="118" width="58" height="58" rx="4" fill="none" stroke="#EF9F27" stroke-width="0.6" transform="rotate(18 697 147)"/>
  <circle cx="80" cy="270" r="70" fill="#222220"/>

  <!-- Nav -->
  <text x="48" y="44" font-size="14" font-weight="600" fill="#FFFFFF" letter-spacing="1">YN</text>
  <text x="480" y="44" font-size="12" fill="#888780">Work</text>
  <text x="540" y="44" font-size="12" fill="#888780">Process</text>
  <text x="610" y="44" font-size="12" fill="#888780">About</text>
  <text x="672" y="44" font-size="12" fill="#888780">Contact</text>
  <line x1="0" y1="58" x2="800" y2="58" stroke="#2C2C2A" stroke-width="0.5"/>

  <!-- Eyebrow -->
  <text x="48" y="100" font-size="10" font-weight="500" fill="#EF9F27" letter-spacing="3">UX/UI DESIGNER</text>

  <!-- Headline -->
  <text x="48" y="150" font-size="42" font-weight="500" fill="#FFFFFF">Vom ersten Insight</text>
  <text x="48" y="200" font-size="42" font-weight="500" fill="#FFFFFF">zum finalen Handoff —</text>
  <text x="48" y="250" font-size="42" font-weight="500" fill="#EF9F27">ich owne den Prozess.</text>

  <!-- Subline -->
  <text x="48" y="290" font-size="13" fill="#888780">Ich gestalte Interfaces, die funktionieren — vom Konzept bis zur Entwicklerübergabe.</text>

  <!-- CTAs -->
  <rect x="48" y="312" width="152" height="38" rx="19" fill="#EF9F27"/>
  <text x="124" y="336" font-size="13" font-weight="500" fill="#1A1A18" text-anchor="middle">Meine Projekte →</text>
  <rect x="212" y="312" width="96" height="38" rx="19" fill="none" stroke="#444441" stroke-width="1"/>
  <text x="260" y="336" font-size="13" fill="#888780" text-anchor="middle">Kontakt</text>

  <!-- ======================== STATS BAR ======================== -->
  <rect x="0" y="362" width="800" height="60" fill="#F5F4EF"/>
  <line x1="0" y1="421" x2="800" y2="421" stroke="#E8E7E2" stroke-width="0.5"/>

  <text x="48" y="386" font-size="9" fill="#B4B2A9" letter-spacing="2">ERFAHRUNG</text>
  <text x="48" y="404" font-size="13" font-weight="500" fill="#1A1A18">5+ Jahre</text>

  <text x="220" y="386" font-size="9" fill="#B4B2A9" letter-spacing="2">PROJEKTE</text>
  <text x="220" y="404" font-size="13" font-weight="500" fill="#1A1A18">24+ geliefert</text>

  <text x="400" y="386" font-size="9" fill="#B4B2A9" letter-spacing="2">TOOLS</text>
  <text x="400" y="404" font-size="13" font-weight="500" fill="#1A1A18">Figma · FigJam</text>

  <text x="580" y="386" font-size="9" fill="#B4B2A9" letter-spacing="2">STANDORT</text>
  <text x="580" y="404" font-size="13" font-weight="500" fill="#1A1A18">Wien · Remote</text>

  <!-- ======================== PROJEKTE ======================== -->
  <text x="48" y="462" font-size="9" font-weight="500" fill="#EF9F27" letter-spacing="3">AUSGEWÄHLTE PROJEKTE</text>
  <text x="48" y="490" font-size="24" font-weight="500" fill="#1A1A18">Meine Arbeit</text>
  <text x="48" y="512" font-size="13" fill="#5F5E5A">Projekte die zeigen, wie ich denke — nicht nur was ich gestalte.</text>

  <!-- Projekt 1 -->
  <rect x="48" y="532" width="340" height="230" rx="10" fill="#FFFFFF" stroke="#E8E7E2" stroke-width="0.5"/>
  <rect x="48" y="532" width="340" height="100" rx="10" fill="#FAEEDA"/>
  <rect x="48" y="602" width="340" height="30" fill="#FAEEDA"/>
  <!-- Dekoratives UI-Element -->
  <rect x="88" y="558" width="180" height="14" rx="4" fill="#FAC775"/>
  <rect x="88" y="580" width="120" height="8" rx="3" fill="#EF9F27" opacity="0.4"/>
  <!-- Text -->
  <text x="68" y="656" font-size="9" font-weight="500" fill="#BA7517" letter-spacing="2">DECISION SUPPORT · APP</text>
  <text x="68" y="678" font-size="15" font-weight="500" fill="#1A1A18">Recovery Training App</text>
  <text x="68" y="700" font-size="11" fill="#5F5E5A">System, das Recovery-Daten in eine klare</text>
  <text x="68" y="716" font-size="11" fill="#5F5E5A">tägliche Trainingsempfehlung übersetzt.</text>
  <rect x="68" y="728" width="108" height="18" rx="9" fill="#FAEEDA"/>
  <text x="122" y="741" font-size="10" fill="#633806" text-anchor="middle">Interaktionskonzept</text>
  <rect x="184" y="728" width="84" height="18" rx="9" fill="#FAEEDA"/>
  <text x="226" y="741" font-size="10" fill="#633806" text-anchor="middle">Design System</text>
  <text x="68" y="752" font-size="12" font-weight="500" fill="#EF9F27">Case study →</text>

  <!-- Projekt 2 -->
  <rect x="412" y="532" width="340" height="230" rx="10" fill="#FFFFFF" stroke="#E8E7E2" stroke-width="0.5"/>
  <rect x="412" y="532" width="340" height="100" rx="10" fill="#E1F5EE"/>
  <rect x="412" y="602" width="340" height="30" fill="#E1F5EE"/>
  <rect x="452" y="558" width="180" height="14" rx="4" fill="#9FE1CB"/>
  <rect x="452" y="580" width="140" height="8" rx="3" fill="#5DCAA5" opacity="0.4"/>
  <text x="432" y="656" font-size="9" font-weight="500" fill="#0F6E56" letter-spacing="2">B2B SAAS · DASHBOARD</text>
  <text x="432" y="678" font-size="15" font-weight="500" fill="#1A1A18">Analytics Dashboard</text>
  <text x="432" y="700" font-size="11" fill="#5F5E5A">Komplexe Daten für nicht-technische</text>
  <text x="432" y="716" font-size="11" fill="#5F5E5A">Nutzer. 3× schnellere Entscheidungen.</text>
  <rect x="432" y="728" width="72" height="18" rx="9" fill="#E1F5EE"/>
  <text x="468" y="741" font-size="10" fill="#085041" text-anchor="middle">Wireframes</text>
  <rect x="512" y="728" width="76" height="18" rx="9" fill="#E1F5EE"/>
  <text x="550" y="741" font-size="10" fill="#085041" text-anchor="middle">Dev Handoff</text>
  <text x="432" y="752" font-size="12" font-weight="500" fill="#1D9E75">Case study →</text>

  <!-- Projekt 3 -->
  <rect x="48" y="778" width="340" height="230" rx="10" fill="#FFFFFF" stroke="#E8E7E2" stroke-width="0.5"/>
  <rect x="48" y="778" width="340" height="100" rx="10" fill="#EEEDFE"/>
  <rect x="48" y="848" width="340" height="30" fill="#EEEDFE"/>
  <rect x="88" y="804" width="180" height="14" rx="4" fill="#AFA9EC"/>
  <rect x="88" y="826" width="100" height="8" rx="3" fill="#7F77DD" opacity="0.4"/>
  <text x="68" y="902" font-size="9" font-weight="500" fill="#534AB7" letter-spacing="2">DESIGN SYSTEM</text>
  <text x="68" y="924" font-size="15" font-weight="500" fill="#1A1A18">Component Library</text>
  <text x="68" y="946" font-size="11" fill="#5F5E5A">Token-basierte Library mit Dokumentation</text>
  <text x="68" y="962" font-size="11" fill="#5F5E5A">für 6 Produktteams.</text>
  <rect x="68" y="974" width="96" height="18" rx="9" fill="#EEEDFE"/>
  <text x="116" y="987" font-size="10" fill="#3C3489" text-anchor="middle">Documentation</text>
  <rect x="172" y="974" width="60" height="18" rx="9" fill="#EEEDFE"/>
  <text x="202" y="987" font-size="10" fill="#3C3489" text-anchor="middle">Schulung</text>
  <text x="68" y="998" font-size="12" font-weight="500" fill="#7F77DD">Case study →</text>

  <!-- Projekt 4 -->
  <rect x="412" y="778" width="340" height="230" rx="10" fill="#FFFFFF" stroke="#E8E7E2" stroke-width="0.5"/>
  <rect x="412" y="778" width="340" height="100" rx="10" fill="#FAECE7"/>
  <rect x="412" y="848" width="340" height="30" fill="#FAECE7"/>
  <rect x="452" y="804" width="180" height="14" rx="4" fill="#F5C4B3"/>
  <rect x="452" y="826" width="120" height="8" rx="3" fill="#D85A30" opacity="0.3"/>
  <text x="432" y="902" font-size="9" font-weight="500" fill="#993C1D" letter-spacing="2">CONSUMER · ONBOARDING</text>
  <text x="432" y="924" font-size="15" font-weight="500" fill="#1A1A18">Onboarding Redesign</text>
  <text x="432" y="946" font-size="11" fill="#5F5E5A">12-stufigen Signup-Flow auf 4 Screens</text>
  <text x="432" y="962" font-size="11" fill="#5F5E5A">reduziert. Aktivierungsrate +58%.</text>
  <rect x="432" y="974" width="96" height="18" rx="9" fill="#FAECE7"/>
  <text x="480" y="987" font-size="10" fill="#712B13" text-anchor="middle">Visuelles Design</text>
  <rect x="536" y="974" width="56" height="18" rx="9" fill="#FAECE7"/>
  <text x="564" y="987" font-size="10" fill="#712B13" text-anchor="middle">Research</text>
  <text x="432" y="998" font-size="12" font-weight="500" fill="#D85A30">Case study →</text>

  <!-- ======================== PROZESS ======================== -->
  <line x1="0" y1="1040" x2="800" y2="1040" stroke="#F1EFE8" stroke-width="1"/>
  <text x="48" y="1076" font-size="9" font-weight="500" fill="#EF9F27" letter-spacing="3">DER PROZESS</text>
  <text x="48" y="1104" font-size="24" font-weight="500" fill="#1A1A18">Wie ich arbeite</text>
  <text x="48" y="1126" font-size="13" fill="#5F5E5A">Den vollständigen Design-Prozess — von der ersten Frage bis zur Übergabe.</text>

  <!-- Process Steps -->
  <rect x="48" y="1146" width="100" height="32" rx="6" fill="#1A1A18"/>
  <text x="98" y="1167" font-size="12" font-weight="500" fill="#EF9F27" text-anchor="middle">Research</text>
  <text x="156" y="1167" font-size="13" fill="#B4B2A9">→</text>
  <rect x="170" y="1146" width="96" height="32" rx="6" fill="#1A1A18"/>
  <text x="218" y="1167" font-size="12" font-weight="500" fill="#EF9F27" text-anchor="middle">Konzept</text>
  <text x="274" y="1167" font-size="13" fill="#B4B2A9">→</text>
  <rect x="288" y="1146" width="100" height="32" rx="6" fill="#1A1A18"/>
  <text x="338" y="1167" font-size="12" font-weight="500" fill="#EF9F27" text-anchor="middle">Wireframe</text>
  <text x="396" y="1167" font-size="13" fill="#B4B2A9">→</text>
  <rect x="410" y="1146" width="128" height="32" rx="6" fill="#EF9F27"/>
  <text x="474" y="1167" font-size="12" font-weight="500" fill="#1A1A18" text-anchor="middle">Visual Design</text>
  <text x="546" y="1167" font-size="13" fill="#B4B2A9">→</text>
  <rect x="560" y="1146" width="112" height="32" rx="6" fill="#1A1A18"/>
  <text x="616" y="1167" font-size="12" font-weight="500" fill="#EF9F27" text-anchor="middle">Dev Handoff</text>

  <!-- Skills Grid -->
  <!-- Row 1 -->
  <rect x="48" y="1196" width="168" height="80" rx="10" fill="#1A1A18"/>
  <text x="68" y="1222" font-size="12" font-weight="500" fill="#EF9F27">Interaktionskonzepte</text>
  <text x="68" y="1240" font-size="11" fill="#888780">Flows, Prototypen und</text>
  <text x="68" y="1256" font-size="11" fill="#888780">Interaktionslogik.</text>

  <rect x="228" y="1196" width="168" height="80" rx="10" fill="#1A1A18"/>
  <text x="248" y="1222" font-size="12" font-weight="500" fill="#EF9F27">Visuelles Design</text>
  <text x="248" y="1240" font-size="11" fill="#888780">Konsistente, markengerechte</text>
  <text x="248" y="1256" font-size="11" fill="#888780">UI-Gestaltung.</text>

  <rect x="408" y="1196" width="168" height="80" rx="10" fill="#1A1A18"/>
  <text x="428" y="1222" font-size="12" font-weight="500" fill="#EF9F27">Design System</text>
  <text x="428" y="1240" font-size="11" fill="#888780">Token-Libraries und</text>
  <text x="428" y="1256" font-size="11" fill="#888780">Komponenten-Docs.</text>

  <rect x="588" y="1196" width="164" height="80" rx="10" fill="#1A1A18"/>
  <text x="608" y="1222" font-size="12" font-weight="500" fill="#EF9F27">Wireframes</text>
  <text x="608" y="1240" font-size="11" fill="#888780">Lo-fi bis Hi-fi zur</text>
  <text x="608" y="1256" font-size="11" fill="#888780">Ideenvalidierung.</text>

  <!-- Row 2 -->
  <rect x="48" y="1288" width="168" height="80" rx="10" fill="#F5F4EF"/>
  <text x="68" y="1314" font-size="12" font-weight="500" fill="#1A1A18">Documentation</text>
  <text x="68" y="1332" font-size="11" fill="#5F5E5A">Klare Specs und Guides</text>
  <text x="68" y="1348" font-size="11" fill="#5F5E5A">die Teams wirklich nutzen.</text>

  <rect x="228" y="1288" width="168" height="80" rx="10" fill="#F5F4EF"/>
  <text x="248" y="1314" font-size="12" font-weight="500" fill="#1A1A18">Dev Handoff</text>
  <text x="248" y="1332" font-size="11" fill="#5F5E5A">Figma Redlines, States</text>
  <text x="248" y="1348" font-size="11" fill="#5F5E5A">und Specs.</text>

  <rect x="408" y="1288" width="168" height="80" rx="10" fill="#F5F4EF"/>
  <text x="428" y="1314" font-size="12" font-weight="500" fill="#1A1A18">Schulung</text>
  <text x="428" y="1332" font-size="11" fill="#5F5E5A">Workshops für Teams zur</text>
  <text x="428" y="1348" font-size="11" fill="#5F5E5A">Einführung von Systems.</text>

  <rect x="588" y="1288" width="164" height="80" rx="10" fill="#FAEEDA"/>
  <text x="608" y="1314" font-size="12" font-weight="500" fill="#633806">AI Prompting</text>
  <text x="608" y="1332" font-size="11" fill="#854F0B">Workflows mit LLMs</text>
  <text x="608" y="1348" font-size="11" fill="#854F0B">beschleunigen.</text>

  <!-- ======================== ABOUT ======================== -->
  <line x1="0" y1="1400" x2="800" y2="1400" stroke="#F1EFE8" stroke-width="1"/>
  <text x="48" y="1436" font-size="9" font-weight="500" fill="#EF9F27" letter-spacing="3">ÜBER MICH</text>
  <text x="48" y="1464" font-size="24" font-weight="500" fill="#1A1A18">Wer ich bin</text>

  <!-- Avatar -->
  <circle cx="88" cy="1536" r="48" fill="#FAEEDA"/>
  <text x="88" y="1544" font-size="20" font-weight="500" fill="#633806" text-anchor="middle">YN</text>

  <!-- About Text -->
  <text x="160" y="1504" font-size="15" font-weight="500" fill="#1A1A18">Yasmin Nakamura, UX/UI Designer</text>
  <text x="160" y="1528" font-size="13" fill="#5F5E5A">Ich arbeite seit 5 Jahren an der Schnittstelle zwischen Nutzer, Design</text>
  <text x="160" y="1546" font-size="13" fill="#5F5E5A">und Entwicklung. Mein Fokus liegt darauf, Komplexität in klare, nutzbare</text>
  <text x="160" y="1564" font-size="13" fill="#5F5E5A">Erlebnisse zu übersetzen — vom ersten Wireframe bis zum fertigen Handoff.</text>
  <text x="160" y="1592" font-size="13" fill="#5F5E5A">Ich denke gerne in Systemen statt in einzelnen Screens. Das ist auch der</text>
  <text x="160" y="1610" font-size="13" fill="#5F5E5A">Grund, warum ich mich in Richtung Product Design entwickle — dort wo</text>
  <text x="160" y="1628" font-size="13" fill="#5F5E5A">Design-Entscheidungen strategische Konsequenzen haben.</text>

  <!-- About Tags -->
  <rect x="160" y="1644" width="48" height="22" rx="11" fill="#F5F4EF" stroke="#E8E7E2" stroke-width="0.5"/>
  <text x="184" y="1659" font-size="11" fill="#5F5E5A" text-anchor="middle">Wien</text>
  <rect x="216" y="1644" width="112" height="22" rx="11" fill="#F5F4EF" stroke="#E8E7E2" stroke-width="0.5"/>
  <text x="272" y="1659" font-size="11" fill="#5F5E5A" text-anchor="middle">Remote möglich</text>
  <rect x="336" y="1644" width="160" height="22" rx="11" fill="#F5F4EF" stroke="#E8E7E2" stroke-width="0.5"/>
  <text x="416" y="1659" font-size="11" fill="#5F5E5A" text-anchor="middle">Offen für neue Projekte</text>

  <!-- Quote -->
  <rect x="48" y="1686" width="4" height="56" rx="2" fill="#EF9F27"/>
  <rect x="52" y="1686" width="700" height="56" fill="#FAEEDA"/>
  <rect x="52" y="1686" width="700" height="56" rx="0 8 8 0" fill="#FAEEDA"/>
  <text x="72" y="1708" font-size="13" fill="#633806" font-style="italic">"Gutes Design entsteht nicht wenn man nichts mehr hinzufügen kann —</text>
  <text x="72" y="1728" font-size="13" fill="#633806" font-style="italic">sondern wenn man nichts mehr weglassen kann."</text>

  <!-- ======================== CTA / KONTAKT ======================== -->
  <rect x="0" y="1772" width="800" height="100" fill="#1A1A18"/>
  <text x="48" y="1816" font-size="20" font-weight="500" fill="#FFFFFF">Offen für neue Projekte.</text>
  <text x="48" y="1840" font-size="13" fill="#888780">Freelance &amp; Festanstellung · Wien &amp; Remote</text>
  <rect x="596" y="1800" width="156" height="38" rx="19" fill="#EF9F27"/>
  <text x="674" y="1824" font-size="13" font-weight="500" fill="#1A1A18" text-anchor="middle">Gespräch starten →</text>

  <!-- ======================== FOOTER ======================== -->
  <rect x="0" y="1872" width="800" height="48" fill="#111110"/>
  <text x="48" y="1901" font-size="12" fill="#444441">© 2026 Yasmin Nakamura</text>
  <text x="620" y="1901" font-size="12" fill="#444441">LinkedIn</text>
  <text x="700" y="1901" font-size="12" fill="#444441">E-Mail</text>

</svg>
